<mxfile host="app.diagrams.net" agent="Mozilla/5.0 (Windows NT 10.0; Win64; x64) AppleWebKit/537.36 (KHTML, like Gecko) Chrome/127.0.0.0 Safari/537.36 Edg/127.0.0.0" version="24.7.7">
  <diagram name="PÃ¡gina-1" id="MRLjDgMta1MU4-Kcc_bx">
    <mxGraphModel dx="2026" dy="791" grid="0" gridSize="10" guides="1" tooltips="1" connect="1" arrows="1" fold="1" page="0" pageScale="1" pageWidth="827" pageHeight="1169" math="0" shadow="0">
      <root>
        <mxCell id="0" />
        <mxCell id="1" parent="0" />
        <mxCell id="cS3gq6QF73aFBUJJRiFE-41" value="" style="shape=ext;double=1;rounded=0;whiteSpace=wrap;html=1;movable=0;resizable=0;rotatable=0;deletable=0;editable=0;locked=1;connectable=0;fillColor=#fff2cc;strokeColor=#d6b656;" parent="1" vertex="1">
          <mxGeometry x="-180" y="239" width="660" height="540" as="geometry" />
        </mxCell>
        <mxCell id="cS3gq6QF73aFBUJJRiFE-43" value="" style="shape=ext;double=1;rounded=0;whiteSpace=wrap;html=1;movable=0;resizable=0;rotatable=0;deletable=0;editable=0;locked=1;connectable=0;fillColor=#d5e8d4;strokeColor=#82b366;opacity=30;" parent="1" vertex="1">
          <mxGeometry x="808" y="239" width="579" height="540" as="geometry" />
        </mxCell>
        <mxCell id="cS3gq6QF73aFBUJJRiFE-42" value="" style="shape=ext;double=1;rounded=0;whiteSpace=wrap;html=1;movable=0;resizable=0;rotatable=0;deletable=0;editable=0;locked=1;connectable=0;fillColor=#dae8fc;strokeColor=#6c8ebf;" parent="1" vertex="1">
          <mxGeometry x="477" y="239" width="334" height="540" as="geometry" />
        </mxCell>
        <mxCell id="cS3gq6QF73aFBUJJRiFE-4" value="SW1" style="shape=mxgraph.cisco.switches.layer_3_switch;sketch=0;html=1;pointerEvents=1;dashed=0;fillColor=#036897;strokeColor=#ffffff;strokeWidth=2;verticalLabelPosition=bottom;verticalAlign=top;align=center;outlineConnect=0;" parent="1" vertex="1">
          <mxGeometry x="143" y="482" width="64" height="64" as="geometry" />
        </mxCell>
        <mxCell id="cS3gq6QF73aFBUJJRiFE-5" value="R1" style="shape=mxgraph.cisco.routers.router;sketch=0;html=1;pointerEvents=1;dashed=0;fillColor=#036897;strokeColor=#ffffff;strokeWidth=2;verticalLabelPosition=bottom;verticalAlign=top;align=center;outlineConnect=0;" parent="1" vertex="1">
          <mxGeometry x="375" y="360" width="78" height="53" as="geometry" />
        </mxCell>
        <mxCell id="cS3gq6QF73aFBUJJRiFE-6" value="R2" style="shape=mxgraph.cisco.routers.router;sketch=0;html=1;pointerEvents=1;dashed=0;fillColor=#036897;strokeColor=#ffffff;strokeWidth=2;verticalLabelPosition=bottom;verticalAlign=top;align=center;outlineConnect=0;" parent="1" vertex="1">
          <mxGeometry x="375" y="674" width="78" height="53" as="geometry" />
        </mxCell>
        <mxCell id="cS3gq6QF73aFBUJJRiFE-7" value="R3" style="shape=mxgraph.cisco.routers.router;sketch=0;html=1;pointerEvents=1;dashed=0;fillColor=#036897;strokeColor=#ffffff;strokeWidth=2;verticalLabelPosition=bottom;verticalAlign=top;align=center;outlineConnect=0;" parent="1" vertex="1">
          <mxGeometry x="600" y="515.5" width="78" height="53" as="geometry" />
        </mxCell>
        <mxCell id="cS3gq6QF73aFBUJJRiFE-8" value="R4" style="shape=mxgraph.cisco.routers.router;sketch=0;html=1;pointerEvents=1;dashed=0;fillColor=#036897;strokeColor=#ffffff;strokeWidth=2;verticalLabelPosition=bottom;verticalAlign=top;align=center;outlineConnect=0;" parent="1" vertex="1">
          <mxGeometry x="890" y="515.5" width="78" height="53" as="geometry" />
        </mxCell>
        <mxCell id="cS3gq6QF73aFBUJJRiFE-11" value="" style="shape=mxgraph.cisco.servers.fileserver;sketch=0;html=1;pointerEvents=1;dashed=0;fillColor=#036897;strokeColor=#ffffff;strokeWidth=2;verticalLabelPosition=bottom;verticalAlign=top;align=center;outlineConnect=0;" parent="1" vertex="1">
          <mxGeometry x="1280" y="385" width="43" height="62" as="geometry" />
        </mxCell>
        <mxCell id="cS3gq6QF73aFBUJJRiFE-14" value="" style="shape=mxgraph.cisco.computers_and_peripherals.pc;sketch=0;html=1;pointerEvents=1;dashed=0;fillColor=#036897;strokeColor=#ffffff;strokeWidth=2;verticalLabelPosition=bottom;verticalAlign=top;align=center;outlineConnect=0;" parent="1" vertex="1">
          <mxGeometry x="-121" y="348" width="78" height="77" as="geometry" />
        </mxCell>
        <mxCell id="cS3gq6QF73aFBUJJRiFE-15" value="" style="shape=mxgraph.cisco.computers_and_peripherals.pc;sketch=0;html=1;pointerEvents=1;dashed=0;fillColor=#036897;strokeColor=#ffffff;strokeWidth=2;verticalLabelPosition=bottom;verticalAlign=top;align=center;outlineConnect=0;" parent="1" vertex="1">
          <mxGeometry x="-121" y="501" width="78" height="77" as="geometry" />
        </mxCell>
        <mxCell id="cS3gq6QF73aFBUJJRiFE-16" value="" style="shape=mxgraph.cisco.computers_and_peripherals.pc;sketch=0;html=1;pointerEvents=1;dashed=0;fillColor=#036897;strokeColor=#ffffff;strokeWidth=2;verticalLabelPosition=bottom;verticalAlign=top;align=center;outlineConnect=0;" parent="1" vertex="1">
          <mxGeometry x="-121" y="654" width="78" height="77" as="geometry" />
        </mxCell>
        <mxCell id="cS3gq6QF73aFBUJJRiFE-20" value="" style="endArrow=block;html=1;startArrow=block;startFill=1;endFill=1;strokeColor=#b85450;dashed=1;dashPattern=5 5;rounded=0;strokeWidth=1;endSize=6;jumpSize=10;fillColor=#f8cecc;" parent="1" source="cS3gq6QF73aFBUJJRiFE-14" target="cS3gq6QF73aFBUJJRiFE-4" edge="1">
          <mxGeometry width="100" height="100" relative="1" as="geometry">
            <mxPoint x="150" y="470" as="sourcePoint" />
            <mxPoint x="250" y="370" as="targetPoint" />
          </mxGeometry>
        </mxCell>
        <mxCell id="cS3gq6QF73aFBUJJRiFE-23" value="Vlan 10" style="edgeLabel;html=1;align=center;verticalAlign=middle;resizable=0;points=[];" parent="cS3gq6QF73aFBUJJRiFE-20" vertex="1" connectable="0">
          <mxGeometry x="-0.1947" relative="1" as="geometry">
            <mxPoint as="offset" />
          </mxGeometry>
        </mxCell>
        <mxCell id="cS3gq6QF73aFBUJJRiFE-21" value="" style="endArrow=block;html=1;startArrow=block;startFill=1;endFill=1;strokeColor=#d6b656;dashed=1;dashPattern=5 5;rounded=0;fillColor=#fff2cc;" parent="1" source="cS3gq6QF73aFBUJJRiFE-15" target="cS3gq6QF73aFBUJJRiFE-4" edge="1">
          <mxGeometry width="100" height="100" relative="1" as="geometry">
            <mxPoint x="150" y="570" as="sourcePoint" />
            <mxPoint x="250" y="470" as="targetPoint" />
          </mxGeometry>
        </mxCell>
        <mxCell id="cS3gq6QF73aFBUJJRiFE-24" value="Vlan 20" style="edgeLabel;html=1;align=center;verticalAlign=middle;resizable=0;points=[];" parent="cS3gq6QF73aFBUJJRiFE-21" vertex="1" connectable="0">
          <mxGeometry x="-0.104" y="-1" relative="1" as="geometry">
            <mxPoint as="offset" />
          </mxGeometry>
        </mxCell>
        <mxCell id="cS3gq6QF73aFBUJJRiFE-22" value="" style="endArrow=block;html=1;startArrow=block;startFill=1;endFill=1;strokeColor=#82b366;dashed=1;dashPattern=5 5;rounded=0;fillColor=#d5e8d4;" parent="1" source="cS3gq6QF73aFBUJJRiFE-16" target="cS3gq6QF73aFBUJJRiFE-4" edge="1">
          <mxGeometry width="100" height="100" relative="1" as="geometry">
            <mxPoint x="150" y="570" as="sourcePoint" />
            <mxPoint x="250" y="470" as="targetPoint" />
          </mxGeometry>
        </mxCell>
        <mxCell id="cS3gq6QF73aFBUJJRiFE-25" value="Vlan 30" style="edgeLabel;html=1;align=center;verticalAlign=middle;resizable=0;points=[];" parent="cS3gq6QF73aFBUJJRiFE-22" vertex="1" connectable="0">
          <mxGeometry x="-0.0476" y="-3" relative="1" as="geometry">
            <mxPoint as="offset" />
          </mxGeometry>
        </mxCell>
        <mxCell id="cS3gq6QF73aFBUJJRiFE-26" value="" style="endArrow=none;html=1;startArrow=none;startFill=0;endFill=0;rounded=0;entryX=0.12;entryY=0.9;entryDx=0;entryDy=0;entryPerimeter=0;" parent="1" source="cS3gq6QF73aFBUJJRiFE-4" target="cS3gq6QF73aFBUJJRiFE-5" edge="1">
          <mxGeometry width="100" height="100" relative="1" as="geometry">
            <mxPoint x="360" y="540" as="sourcePoint" />
            <mxPoint x="460" y="440" as="targetPoint" />
          </mxGeometry>
        </mxCell>
        <mxCell id="cS3gq6QF73aFBUJJRiFE-27" value="" style="endArrow=none;html=1;startArrow=none;startFill=0;endFill=0;rounded=0;exitX=0.95;exitY=0.94;exitDx=0;exitDy=0;exitPerimeter=0;entryX=0.12;entryY=0.1;entryDx=0;entryDy=0;entryPerimeter=0;" parent="1" source="cS3gq6QF73aFBUJJRiFE-4" target="cS3gq6QF73aFBUJJRiFE-6" edge="1">
          <mxGeometry width="100" height="100" relative="1" as="geometry">
            <mxPoint x="287" y="523" as="sourcePoint" />
            <mxPoint x="395" y="423" as="targetPoint" />
          </mxGeometry>
        </mxCell>
        <mxCell id="cS3gq6QF73aFBUJJRiFE-29" value="" style="endArrow=none;html=1;startArrow=none;startFill=0;endFill=0;rounded=0;entryX=0.88;entryY=0.9;entryDx=0;entryDy=0;entryPerimeter=0;exitX=0.12;exitY=0.1;exitDx=0;exitDy=0;exitPerimeter=0;" parent="1" source="cS3gq6QF73aFBUJJRiFE-7" target="cS3gq6QF73aFBUJJRiFE-5" edge="1">
          <mxGeometry width="100" height="100" relative="1" as="geometry">
            <mxPoint x="390" y="540" as="sourcePoint" />
            <mxPoint x="497" y="437" as="targetPoint" />
          </mxGeometry>
        </mxCell>
        <mxCell id="cS3gq6QF73aFBUJJRiFE-30" value="" style="endArrow=none;html=1;startArrow=none;startFill=0;endFill=0;rounded=0;entryX=1;entryY=0.5;entryDx=0;entryDy=0;entryPerimeter=0;exitX=0.5;exitY=0;exitDx=0;exitDy=0;exitPerimeter=0;" parent="1" source="cS3gq6QF73aFBUJJRiFE-7" target="cS3gq6QF73aFBUJJRiFE-5" edge="1">
          <mxGeometry width="100" height="100" relative="1" as="geometry">
            <mxPoint x="579" y="553" as="sourcePoint" />
            <mxPoint x="414" y="440" as="targetPoint" />
          </mxGeometry>
        </mxCell>
        <mxCell id="cS3gq6QF73aFBUJJRiFE-31" value="" style="endArrow=none;html=1;startArrow=none;startFill=0;endFill=0;rounded=0;entryX=0.88;entryY=0.1;entryDx=0;entryDy=0;entryPerimeter=0;exitX=0.12;exitY=0.9;exitDx=0;exitDy=0;exitPerimeter=0;" parent="1" source="cS3gq6QF73aFBUJJRiFE-7" target="cS3gq6QF73aFBUJJRiFE-6" edge="1">
          <mxGeometry width="100" height="100" relative="1" as="geometry">
            <mxPoint x="525" y="574" as="sourcePoint" />
            <mxPoint x="360" y="461" as="targetPoint" />
          </mxGeometry>
        </mxCell>
        <mxCell id="cS3gq6QF73aFBUJJRiFE-32" value="" style="endArrow=none;html=1;startArrow=none;startFill=0;endFill=0;rounded=0;entryX=1;entryY=0.5;entryDx=0;entryDy=0;entryPerimeter=0;exitX=0;exitY=0.5;exitDx=0;exitDy=0;exitPerimeter=0;" parent="1" source="cS3gq6QF73aFBUJJRiFE-8" target="cS3gq6QF73aFBUJJRiFE-7" edge="1">
          <mxGeometry width="100" height="100" relative="1" as="geometry">
            <mxPoint x="856" y="525.5" as="sourcePoint" />
            <mxPoint x="670" y="396.5" as="targetPoint" />
          </mxGeometry>
        </mxCell>
        <mxCell id="cS3gq6QF73aFBUJJRiFE-33" value="" style="endArrow=none;html=1;startArrow=none;startFill=0;endFill=0;rounded=0;" parent="1" source="cS3gq6QF73aFBUJJRiFE-50" target="cS3gq6QF73aFBUJJRiFE-8" edge="1">
          <mxGeometry width="100" height="100" relative="1" as="geometry">
            <mxPoint x="1081" y="542" as="sourcePoint" />
            <mxPoint x="810" y="610" as="targetPoint" />
          </mxGeometry>
        </mxCell>
        <mxCell id="cS3gq6QF73aFBUJJRiFE-34" value="" style="endArrow=none;html=1;startArrow=none;startFill=0;endFill=0;strokeColor=#666666;dashed=1;dashPattern=5 5;rounded=0;fillColor=#f5f5f5;" parent="1" source="cS3gq6QF73aFBUJJRiFE-50" target="cS3gq6QF73aFBUJJRiFE-11" edge="1">
          <mxGeometry width="100" height="100" relative="1" as="geometry">
            <mxPoint x="1165.2301587301586" y="517" as="sourcePoint" />
            <mxPoint x="1120" y="440" as="targetPoint" />
          </mxGeometry>
        </mxCell>
        <mxCell id="cS3gq6QF73aFBUJJRiFE-51" value="VLAN 40" style="edgeLabel;html=1;align=center;verticalAlign=middle;resizable=0;points=[];" parent="cS3gq6QF73aFBUJJRiFE-34" vertex="1" connectable="0">
          <mxGeometry x="-0.0128" y="1" relative="1" as="geometry">
            <mxPoint as="offset" />
          </mxGeometry>
        </mxCell>
        <mxCell id="cS3gq6QF73aFBUJJRiFE-36" value="" style="endArrow=none;html=1;startArrow=none;startFill=0;endFill=0;strokeColor=#666666;dashed=1;dashPattern=5 5;rounded=0;fillColor=#f5f5f5;" parent="1" source="cS3gq6QF73aFBUJJRiFE-50" target="cS3gq6QF73aFBUJJRiFE-49" edge="1">
          <mxGeometry width="100" height="100" relative="1" as="geometry">
            <mxPoint x="1168.87" y="554.0000000000002" as="sourcePoint" />
            <mxPoint x="1280.15" y="609.02" as="targetPoint" />
          </mxGeometry>
        </mxCell>
        <mxCell id="cS3gq6QF73aFBUJJRiFE-52" value="VLAN 50" style="edgeLabel;html=1;align=center;verticalAlign=middle;resizable=0;points=[];" parent="cS3gq6QF73aFBUJJRiFE-36" vertex="1" connectable="0">
          <mxGeometry x="0.0583" y="3" relative="1" as="geometry">
            <mxPoint as="offset" />
          </mxGeometry>
        </mxCell>
        <mxCell id="cS3gq6QF73aFBUJJRiFE-37" value="&lt;h1 style=&quot;margin-top: 0px; font-size: 15px;&quot;&gt;&lt;font face=&quot;Verdana&quot; style=&quot;font-size: 15px;&quot;&gt;Objetivos&lt;/font&gt;&lt;/h1&gt;&lt;p style=&quot;font-size: 15px;&quot;&gt;&lt;font face=&quot;QuNPbFPQzpwkeVYOobwU&quot; style=&quot;font-size: 15px;&quot;&gt;1. VLAN 10 enviarÃ¡ o trÃ¡fego preferencialmente pelo R1,&amp;nbsp;&lt;/font&gt;&lt;span style=&quot;font-family: QuNPbFPQzpwkeVYOobwU; background-color: initial;&quot;&gt;VLAN 20 e 30 enviarÃ¡ o trÃ¡fego preferencialmente pelo R2.&lt;/span&gt;&lt;/p&gt;&lt;p style=&quot;font-size: 15px;&quot;&gt;&lt;span style=&quot;font-family: QuNPbFPQzpwkeVYOobwU; background-color: initial;&quot;&gt;2. R1 e R2 farÃ£o HSRP Ativo/Ativo.&lt;/span&gt;&lt;/p&gt;&lt;p style=&quot;font-size: 15px;&quot;&gt;&lt;font face=&quot;QuNPbFPQzpwkeVYOobwU&quot;&gt;3. O R1 e R3 terÃ£o dois links um terÃ¡ peso e outro nÃ£o.&lt;/font&gt;&lt;/p&gt;&lt;p style=&quot;font-size: 15px;&quot;&gt;&lt;font face=&quot;QuNPbFPQzpwkeVYOobwU&quot;&gt;&lt;br&gt;&lt;/font&gt;&lt;/p&gt;" style="text;html=1;whiteSpace=wrap;overflow=hidden;rounded=0;fillColor=#fff2cc;strokeColor=#000000;strokeWidth=2;" parent="1" vertex="1">
          <mxGeometry x="-163" y="49" width="400" height="161" as="geometry" />
        </mxCell>
        <mxCell id="cS3gq6QF73aFBUJJRiFE-44" value="&lt;b&gt;&lt;font style=&quot;font-size: 14px;&quot;&gt;ASN 100&lt;/font&gt;&lt;/b&gt;" style="text;html=1;align=center;verticalAlign=middle;whiteSpace=wrap;rounded=0;" parent="1" vertex="1">
          <mxGeometry x="-173" y="245" width="60" height="30" as="geometry" />
        </mxCell>
        <mxCell id="cS3gq6QF73aFBUJJRiFE-45" value="&lt;b&gt;&lt;font style=&quot;font-size: 14px;&quot;&gt;ASN 200&lt;/font&gt;&lt;/b&gt;" style="text;html=1;align=center;verticalAlign=middle;whiteSpace=wrap;rounded=0;" parent="1" vertex="1">
          <mxGeometry x="482" y="245" width="60" height="30" as="geometry" />
        </mxCell>
        <mxCell id="cS3gq6QF73aFBUJJRiFE-46" value="&lt;b&gt;&lt;font style=&quot;font-size: 14px;&quot;&gt;ASN 300&lt;/font&gt;&lt;/b&gt;" style="text;html=1;align=center;verticalAlign=middle;whiteSpace=wrap;rounded=0;" parent="1" vertex="1">
          <mxGeometry x="815" y="245" width="60" height="30" as="geometry" />
        </mxCell>
        <mxCell id="cS3gq6QF73aFBUJJRiFE-47" value="" style="endArrow=none;dashed=1;html=1;dashPattern=1 3;strokeWidth=2;rounded=0;exitX=0.5;exitY=0;exitDx=0;exitDy=0;exitPerimeter=0;entryX=0.5;entryY=1;entryDx=0;entryDy=0;entryPerimeter=0;" parent="1" source="cS3gq6QF73aFBUJJRiFE-6" target="cS3gq6QF73aFBUJJRiFE-5" edge="1">
          <mxGeometry width="50" height="50" relative="1" as="geometry">
            <mxPoint x="485" y="509" as="sourcePoint" />
            <mxPoint x="535" y="459" as="targetPoint" />
          </mxGeometry>
        </mxCell>
        <mxCell id="cS3gq6QF73aFBUJJRiFE-48" value="VIP:" style="edgeLabel;html=1;align=center;verticalAlign=middle;resizable=0;points=[];" parent="cS3gq6QF73aFBUJJRiFE-47" vertex="1" connectable="0">
          <mxGeometry x="0.2107" y="1" relative="1" as="geometry">
            <mxPoint as="offset" />
          </mxGeometry>
        </mxCell>
        <mxCell id="cS3gq6QF73aFBUJJRiFE-49" value="" style="shape=mxgraph.cisco.servers.fileserver;sketch=0;html=1;pointerEvents=1;dashed=0;fillColor=#036897;strokeColor=#ffffff;strokeWidth=2;verticalLabelPosition=bottom;verticalAlign=top;align=center;outlineConnect=0;" parent="1" vertex="1">
          <mxGeometry x="1280" y="612" width="43" height="62" as="geometry" />
        </mxCell>
        <mxCell id="cS3gq6QF73aFBUJJRiFE-50" value="SW2" style="shape=mxgraph.cisco.switches.layer_3_switch;sketch=0;html=1;pointerEvents=1;dashed=0;fillColor=#036897;strokeColor=#ffffff;strokeWidth=2;verticalLabelPosition=bottom;verticalAlign=top;align=center;outlineConnect=0;" parent="1" vertex="1">
          <mxGeometry x="1094" y="507.5" width="64" height="64" as="geometry" />
        </mxCell>
      </root>
    </mxGraphModel>
  </diagram>
</mxfile>
